<svg width="100%" viewBox="0 0 680 420" role="img" xmlns="http://www.w3.org/2000/svg">
  <title>OpenRPG punch card logo</title>
  <desc>A punch card styled logo for the OpenRPG RPG IV compiler project</desc>
  <defs>
    <style>
      @media (prefers-color-scheme: dark) {
        .card-bg { fill: #e8e0cc; }
        .card-stroke { stroke: #c8b99a; }
        .hole { fill: #1a1a1a; }
        .notch { fill: #c8b99a; }
        .card-text { fill: #2a1f0a; }
        .card-text-muted { fill: #6b5a3a; }
        .wordmark { fill: #e8e0cc; }
        .tagline { fill: #a09080; }
        .rule { stroke: #c8b99a; }
      }
      @media (prefers-color-scheme: light) {
        .card-bg { fill: #f5edd8; }
        .card-stroke { stroke: #c8aa70; }
        .hole { fill: #1a1205; }
        .notch { fill: #c8aa70; }
        .card-text { fill: #1a1205; }
        .card-text-muted { fill: #7a6030; }
        .wordmark { fill: #1a1205; }
        .tagline { fill: #8a7050; }
        .rule { stroke: #c8aa70; }
      }
    </style>
  </defs>

  <rect x="40" y="40" width="600" height="220" rx="5" class="card-bg card-stroke" stroke-width="1.5" />
  <polygon points="40,40 72,40 40,72" class="notch" />

  <text x="58" y="62" font-family="monospace" font-size="6.5" class="card-text-muted" letter-spacing="7.15">0  1  2  3  4  5  6  7  8  9  0  1  2  3  4  5  6  7  8  9  0  1  2  3  4  5  6  7  8  9  0  1  2  3  4  5  6  7  8  9  0  1  2  3</text>
  <line x1="52" y1="68" x2="628" y2="68" class="rule" stroke-width="0.5" />

  <rect x="56" y="76" width="7" height="5" rx="1" class="hole"/>
  <rect x="80" y="76" width="7" height="5" rx="1" class="hole"/>
  <rect x="116" y="76" width="7" height="5" rx="1" class="hole"/>
  <rect x="164" y="76" width="7" height="5" rx="1" class="hole"/>
  <rect x="200" y="76" width="7" height="5" rx="1" class="hole"/>
  <rect x="248" y="76" width="7" height="5" rx="1" class="hole"/>
  <rect x="284" y="76" width="7" height="5" rx="1" class="hole"/>
  <rect x="320" y="76" width="7" height="5" rx="1" class="hole"/>
  <rect x="368" y="76" width="7" height="5" rx="1" class="hole"/>
  <rect x="404" y="76" width="7" height="5" rx="1" class="hole"/>
  <rect x="452" y="76" width="7" height="5" rx="1" class="hole"/>
  <rect x="500" y="76" width="7" height="5" rx="1" class="hole"/>
  <rect x="548" y="76" width="7" height="5" rx="1" class="hole"/>
  <rect x="596" y="76" width="7" height="5" rx="1" class="hole"/>

  <rect x="68" y="87" width="7" height="5" rx="1" class="hole"/>
  <rect x="104" y="87" width="7" height="5" rx="1" class="hole"/>
  <rect x="140" y="87" width="7" height="5" rx="1" class="hole"/>
  <rect x="188" y="87" width="7" height="5" rx="1" class="hole"/>
  <rect x="236" y="87" width="7" height="5" rx="1" class="hole"/>
  <rect x="272" y="87" width="7" height="5" rx="1" class="hole"/>
  <rect x="308" y="87" width="7" height="5" rx="1" class="hole"/>
  <rect x="356" y="87" width="7" height="5" rx="1" class="hole"/>
  <rect x="416" y="87" width="7" height="5" rx="1" class="hole"/>
  <rect x="464" y="87" width="7" height="5" rx="1" class="hole"/>
  <rect x="512" y="87" width="7" height="5" rx="1" class="hole"/>
  <rect x="560" y="87" width="7" height="5" rx="1" class="hole"/>
  <rect x="608" y="87" width="7" height="5" rx="1" class="hole"/>

  <rect x="56" y="98" width="7" height="5" rx="1" class="hole"/>
  <rect x="92" y="98" width="7" height="5" rx="1" class="hole"/>
  <rect x="152" y="98" width="7" height="5" rx="1" class="hole"/>
  <rect x="200" y="98" width="7" height="5" rx="1" class="hole"/>
  <rect x="260" y="98" width="7" height="5" rx="1" class="hole"/>
  <rect x="296" y="98" width="7" height="5" rx="1" class="hole"/>
  <rect x="344" y="98" width="7" height="5" rx="1" class="hole"/>
  <rect x="392" y="98" width="7" height="5" rx="1" class="hole"/>
  <rect x="440" y="98" width="7" height="5" rx="1" class="hole"/>
  <rect x="488" y="98" width="7" height="5" rx="1" class="hole"/>
  <rect x="536" y="98" width="7" height="5" rx="1" class="hole"/>
  <rect x="584" y="98" width="7" height="5" rx="1" class="hole"/>

  <rect x="80" y="109" width="7" height="5" rx="1" class="hole"/>
  <rect x="128" y="109" width="7" height="5" rx="1" class="hole"/>
  <rect x="176" y="109" width="7" height="5" rx="1" class="hole"/>
  <rect x="224" y="109" width="7" height="5" rx="1" class="hole"/>
  <rect x="272" y="109" width="7" height="5" rx="1" class="hole"/>
  <rect x="320" y="109" width="7" height="5" rx="1" class="hole"/>
  <rect x="380" y="109" width="7" height="5" rx="1" class="hole"/>
  <rect x="428" y="109" width="7" height="5" rx="1" class="hole"/>
  <rect x="476" y="109" width="7" height="5" rx="1" class="hole"/>
  <rect x="524" y="109" width="7" height="5" rx="1" class="hole"/>
  <rect x="572" y="109" width="7" height="5" rx="1" class="hole"/>
  <rect x="608" y="109" width="7" height="5" rx="1" class="hole"/>

  <rect x="56" y="120" width="7" height="5" rx="1" class="hole"/>
  <rect x="104" y="120" width="7" height="5" rx="1" class="hole"/>
  <rect x="152" y="120" width="7" height="5" rx="1" class="hole"/>
  <rect x="212" y="120" width="7" height="5" rx="1" class="hole"/>
  <rect x="260" y="120" width="7" height="5" rx="1" class="hole"/>
  <rect x="308" y="120" width="7" height="5" rx="1" class="hole"/>
  <rect x="356" y="120" width="7" height="5" rx="1" class="hole"/>
  <rect x="404" y="120" width="7" height="5" rx="1" class="hole"/>
  <rect x="464" y="120" width="7" height="5" rx="1" class="hole"/>
  <rect x="512" y="120" width="7" height="5" rx="1" class="hole"/>
  <rect x="560" y="120" width="7" height="5" rx="1" class="hole"/>
  <rect x="596" y="120" width="7" height="5" rx="1" class="hole"/>

  <rect x="68" y="131" width="7" height="5" rx="1" class="hole"/>
  <rect x="116" y="131" width="7" height="5" rx="1" class="hole"/>
  <rect x="164" y="131" width="7" height="5" rx="1" class="hole"/>
  <rect x="224" y="131" width="7" height="5" rx="1" class="hole"/>
  <rect x="284" y="131" width="7" height="5" rx="1" class="hole"/>
  <rect x="332" y="131" width="7" height="5" rx="1" class="hole"/>
  <rect x="380" y="131" width="7" height="5" rx="1" class="hole"/>
  <rect x="428" y="131" width="7" height="5" rx="1" class="hole"/>
  <rect x="488" y="131" width="7" height="5" rx="1" class="hole"/>
  <rect x="536" y="131" width="7" height="5" rx="1" class="hole"/>
  <rect x="584" y="131" width="7" height="5" rx="1" class="hole"/>
  <rect x="620" y="131" width="7" height="5" rx="1" class="hole"/>

  <rect x="56" y="142" width="7" height="5" rx="1" class="hole"/>
  <rect x="92" y="142" width="7" height="5" rx="1" class="hole"/>
  <rect x="140" y="142" width="7" height="5" rx="1" class="hole"/>
  <rect x="200" y="142" width="7" height="5" rx="1" class="hole"/>
  <rect x="248" y="142" width="7" height="5" rx="1" class="hole"/>
  <rect x="308" y="142" width="7" height="5" rx="1" class="hole"/>
  <rect x="356" y="142" width="7" height="5" rx="1" class="hole"/>
  <rect x="416" y="142" width="7" height="5" rx="1" class="hole"/>
  <rect x="464" y="142" width="7" height="5" rx="1" class="hole"/>
  <rect x="512" y="142" width="7" height="5" rx="1" class="hole"/>
  <rect x="572" y="142" width="7" height="5" rx="1" class="hole"/>
  <rect x="608" y="142" width="7" height="5" rx="1" class="hole"/>

  <rect x="80" y="153" width="7" height="5" rx="1" class="hole"/>
  <rect x="128" y="153" width="7" height="5" rx="1" class="hole"/>
  <rect x="176" y="153" width="7" height="5" rx="1" class="hole"/>
  <rect x="224" y="153" width="7" height="5" rx="1" class="hole"/>
  <rect x="272" y="153" width="7" height="5" rx="1" class="hole"/>
  <rect x="332" y="153" width="7" height="5" rx="1" class="hole"/>
  <rect x="380" y="153" width="7" height="5" rx="1" class="hole"/>
  <rect x="440" y="153" width="7" height="5" rx="1" class="hole"/>
  <rect x="488" y="153" width="7" height="5" rx="1" class="hole"/>
  <rect x="548" y="153" width="7" height="5" rx="1" class="hole"/>
  <rect x="596" y="153" width="7" height="5" rx="1" class="hole"/>

  <rect x="56" y="164" width="7" height="5" rx="1" class="hole"/>
  <rect x="104" y="164" width="7" height="5" rx="1" class="hole"/>
  <rect x="152" y="164" width="7" height="5" rx="1" class="hole"/>
  <rect x="212" y="164" width="7" height="5" rx="1" class="hole"/>
  <rect x="260" y="164" width="7" height="5" rx="1" class="hole"/>
  <rect x="308" y="164" width="7" height="5" rx="1" class="hole"/>
  <rect x="368" y="164" width="7" height="5" rx="1" class="hole"/>
  <rect x="416" y="164" width="7" height="5" rx="1" class="hole"/>
  <rect x="476" y="164" width="7" height="5" rx="1" class="hole"/>
  <rect x="524" y="164" width="7" height="5" rx="1" class="hole"/>
  <rect x="584" y="164" width="7" height="5" rx="1" class="hole"/>
  <rect x="620" y="164" width="7" height="5" rx="1" class="hole"/>

  <line x1="52" y1="182" x2="628" y2="182" class="rule" stroke-width="0.5"/>

  <text x="58" y="210" font-family="monospace" font-size="28" font-weight="700" class="card-text" letter-spacing="8">OPENRPG</text>
  <text x="58" y="228" font-family="monospace" font-size="10" class="card-text-muted" letter-spacing="1">RPG IV COMPILER · DO NOT FOLD OR MUTILATE</text>
  <text x="623" y="248" text-anchor="end" font-family="monospace" font-size="9" class="card-text-muted" letter-spacing="1">COL 001-080</text>

  <text x="340" y="320" text-anchor="middle" font-family="monospace" font-size="64" font-weight="700" class="wordmark" letter-spacing="-2">OpenRPG</text>
  <line x1="100" y1="334" x2="580" y2="334" class="rule" stroke-width="1"/>
  <text x="340" y="354" text-anchor="middle" font-family="monospace" font-size="13" class="tagline" letter-spacing="3">RPG IV.  RUN ANYWHERE.</text>
</svg>
