<svg width="100%" viewBox="0 0 680 340" role="img" xmlns="http://www.w3.org/2000/svg">
  <title>rpgc punch card logo</title>
  <desc>A punch card styled logo for the rpgc RPG IV compiler project</desc>
  <defs>
    <style>
      @media (prefers-color-scheme: dark) {
        .card-bg { fill: #e8e0cc; }
        .card-stroke { stroke: #c8b99a; }
        .hole { fill: #1a1a1a; }
        .notch { fill: #c8b99a; }
        .card-text { fill: #2a1f0a; }
        .card-text-muted { fill: #6b5a3a; }
        .wordmark { fill: #e8e0cc; }
        .tagline { fill: #a09080; }
        .rule { stroke: #c8b99a; }
      }
      @media (prefers-color-scheme: light) {
        .card-bg { fill: #f5edd8; }
        .card-stroke { stroke: #c8aa70; }
        .hole { fill: #1a1205; }
        .notch { fill: #c8aa70; }
        .card-text { fill: #1a1205; }
        .card-text-muted { fill: #7a6030; }
        .wordmark { fill: #1a1205; }
        .tagline { fill: #8a7050; }
        .rule { stroke: #c8aa70; }
      }
    </style>
  </defs>

  <rect x="40" y="60" width="380" height="220" rx="5" class="card-bg card-stroke" stroke-width="1.5" />
  <polygon points="40,60 72,60 40,92" class="notch" />

  <text x="58" y="82" font-family="monospace" font-size="6.5" class="card-text-muted" letter-spacing="8.4">0  1  2  3  4  5  6  7  8  9  0  1  2  3  4  5  6  7  8  9  0  1  2  3  4  5  6  7  8  9  0  1  2</text>
  <line x1="52" y1="88" x2="408" y2="88" class="rule" stroke-width="0.5" />

  <rect x="56" y="96" width="7" height="5" rx="1" class="hole"/>
  <rect x="74" y="96" width="7" height="5" rx="1" class="hole"/>
  <rect x="101" y="96" width="7" height="5" rx="1" class="hole"/>
  <rect x="137" y="96" width="7" height="5" rx="1" class="hole"/>
  <rect x="182" y="96" width="7" height="5" rx="1" class="hole"/>
  <rect x="200" y="96" width="7" height="5" rx="1" class="hole"/>
  <rect x="245" y="96" width="7" height="5" rx="1" class="hole"/>
  <rect x="272" y="96" width="7" height="5" rx="1" class="hole"/>
  <rect x="308" y="96" width="7" height="5" rx="1" class="hole"/>
  <rect x="344" y="96" width="7" height="5" rx="1" class="hole"/>
  <rect x="371" y="96" width="7" height="5" rx="1" class="hole"/>
  <rect x="389" y="96" width="7" height="5" rx="1" class="hole"/>

  <rect x="65" y="107" width="7" height="5" rx="1" class="hole"/>
  <rect x="92" y="107" width="7" height="5" rx="1" class="hole"/>
  <rect x="119" y="107" width="7" height="5" rx="1" class="hole"/>
  <rect x="155" y="107" width="7" height="5" rx="1" class="hole"/>
  <rect x="173" y="107" width="7" height="5" rx="1" class="hole"/>
  <rect x="218" y="107" width="7" height="5" rx="1" class="hole"/>
  <rect x="254" y="107" width="7" height="5" rx="1" class="hole"/>
  <rect x="281" y="107" width="7" height="5" rx="1" class="hole"/>
  <rect x="326" y="107" width="7" height="5" rx="1" class="hole"/>
  <rect x="362" y="107" width="7" height="5" rx="1" class="hole"/>
  <rect x="398" y="107" width="7" height="5" rx="1" class="hole"/>

  <rect x="56" y="118" width="7" height="5" rx="1" class="hole"/>
  <rect x="83" y="118" width="7" height="5" rx="1" class="hole"/>
  <rect x="128" y="118" width="7" height="5" rx="1" class="hole"/>
  <rect x="164" y="118" width="7" height="5" rx="1" class="hole"/>
  <rect x="209" y="118" width="7" height="5" rx="1" class="hole"/>
  <rect x="236" y="118" width="7" height="5" rx="1" class="hole"/>
  <rect x="263" y="118" width="7" height="5" rx="1" class="hole"/>
  <rect x="299" y="118" width="7" height="5" rx="1" class="hole"/>
  <rect x="335" y="118" width="7" height="5" rx="1" class="hole"/>
  <rect x="371" y="118" width="7" height="5" rx="1" class="hole"/>
  <rect x="389" y="118" width="7" height="5" rx="1" class="hole"/>

  <rect x="74" y="129" width="7" height="5" rx="1" class="hole"/>
  <rect x="110" y="129" width="7" height="5" rx="1" class="hole"/>
  <rect x="146" y="129" width="7" height="5" rx="1" class="hole"/>
  <rect x="191" y="129" width="7" height="5" rx="1" class="hole"/>
  <rect x="227" y="129" width="7" height="5" rx="1" class="hole"/>
  <rect x="272" y="129" width="7" height="5" rx="1" class="hole"/>
  <rect x="317" y="129" width="7" height="5" rx="1" class="hole"/>
  <rect x="344" y="129" width="7" height="5" rx="1" class="hole"/>
  <rect x="380" y="129" width="7" height="5" rx="1" class="hole"/>
  <rect x="398" y="129" width="7" height="5" rx="1" class="hole"/>

  <rect x="56" y="140" width="7" height="5" rx="1" class="hole"/>
  <rect x="92" y="140" width="7" height="5" rx="1" class="hole"/>
  <rect x="119" y="140" width="7" height="5" rx="1" class="hole"/>
  <rect x="164" y="140" width="7" height="5" rx="1" class="hole"/>
  <rect x="200" y="140" width="7" height="5" rx="1" class="hole"/>
  <rect x="245" y="140" width="7" height="5" rx="1" class="hole"/>
  <rect x="290" y="140" width="7" height="5" rx="1" class="hole"/>
  <rect x="326" y="140" width="7" height="5" rx="1" class="hole"/>
  <rect x="362" y="140" width="7" height="5" rx="1" class="hole"/>

  <rect x="65" y="151" width="7" height="5" rx="1" class="hole"/>
  <rect x="101" y="151" width="7" height="5" rx="1" class="hole"/>
  <rect x="137" y="151" width="7" height="5" rx="1" class="hole"/>
  <rect x="173" y="151" width="7" height="5" rx="1" class="hole"/>
  <rect x="218" y="151" width="7" height="5" rx="1" class="hole"/>
  <rect x="263" y="151" width="7" height="5" rx="1" class="hole"/>
  <rect x="299" y="151" width="7" height="5" rx="1" class="hole"/>
  <rect x="335" y="151" width="7" height="5" rx="1" class="hole"/>
  <rect x="371" y="151" width="7" height="5" rx="1" class="hole"/>
  <rect x="398" y="151" width="7" height="5" rx="1" class="hole"/>

  <rect x="56" y="162" width="7" height="5" rx="1" class="hole"/>
  <rect x="83" y="162" width="7" height="5" rx="1" class="hole"/>
  <rect x="128" y="162" width="7" height="5" rx="1" class="hole"/>
  <rect x="155" y="162" width="7" height="5" rx="1" class="hole"/>
  <rect x="200" y="162" width="7" height="5" rx="1" class="hole"/>
  <rect x="236" y="162" width="7" height="5" rx="1" class="hole"/>
  <rect x="281" y="162" width="7" height="5" rx="1" class="hole"/>
  <rect x="308" y="162" width="7" height="5" rx="1" class="hole"/>
  <rect x="353" y="162" width="7" height="5" rx="1" class="hole"/>
  <rect x="389" y="162" width="7" height="5" rx="1" class="hole"/>

  <rect x="74" y="173" width="7" height="5" rx="1" class="hole"/>
  <rect x="110" y="173" width="7" height="5" rx="1" class="hole"/>
  <rect x="146" y="173" width="7" height="5" rx="1" class="hole"/>
  <rect x="182" y="173" width="7" height="5" rx="1" class="hole"/>
  <rect x="218" y="173" width="7" height="5" rx="1" class="hole"/>
  <rect x="263" y="173" width="7" height="5" rx="1" class="hole"/>
  <rect x="290" y="173" width="7" height="5" rx="1" class="hole"/>
  <rect x="326" y="173" width="7" height="5" rx="1" class="hole"/>
  <rect x="371" y="173" width="7" height="5" rx="1" class="hole"/>
  <rect x="398" y="173" width="7" height="5" rx="1" class="hole"/>

  <rect x="56" y="184" width="7" height="5" rx="1" class="hole"/>
  <rect x="92" y="184" width="7" height="5" rx="1" class="hole"/>
  <rect x="128" y="184" width="7" height="5" rx="1" class="hole"/>
  <rect x="164" y="184" width="7" height="5" rx="1" class="hole"/>
  <rect x="209" y="184" width="7" height="5" rx="1" class="hole"/>
  <rect x="245" y="184" width="7" height="5" rx="1" class="hole"/>
  <rect x="272" y="184" width="7" height="5" rx="1" class="hole"/>
  <rect x="317" y="184" width="7" height="5" rx="1" class="hole"/>
  <rect x="344" y="184" width="7" height="5" rx="1" class="hole"/>
  <rect x="380" y="184" width="7" height="5" rx="1" class="hole"/>

  <line x1="52" y1="202" x2="408" y2="202" class="rule" stroke-width="0.5"/>

  <text x="58" y="220" font-family="monospace" font-size="28" font-weight="700" class="card-text" letter-spacing="10">RPGC</text>
  <text x="194" y="220" font-family="monospace" font-size="10" class="card-text-muted" letter-spacing="1">RPG IV COMPILER</text>
  <text x="194" y="234" font-family="monospace" font-size="10" class="card-text-muted" letter-spacing="1">DO NOT FOLD OR MUTILATE</text>
  <text x="403" y="268" text-anchor="end" font-family="monospace" font-size="9" class="card-text-muted" letter-spacing="1">COL 001-080</text>

  <text x="460" y="148" font-family="monospace" font-size="52" font-weight="700" class="wordmark" letter-spacing="-2">rpgc</text>
  <line x1="460" y1="162" x2="636" y2="162" class="rule" stroke-width="1"/>
  <text x="460" y="178" font-family="monospace" font-size="12" class="tagline" letter-spacing="1.5">RPG IV.</text>
  <text x="460" y="195" font-family="monospace" font-size="12" class="tagline" letter-spacing="1.5">RUN ANYWHERE.</text>
</svg>
